# Blender v2.63 (sub 0) OBJ File: 'walls.blend'
# www.blender.org
mtllib table.mtl
o Plane_Plane.001
v 4.851495 0.000000 8.910000
v -4.851495 0.000000 8.910000
v 4.851495 0.000000 -8.910000
v -4.851495 0.000000 -8.910000
vn 0.000000 1.000000 -0.000000
usemtl Material.003
s off
f 2//1 1//1 3//1
f 2//1 3//1 4//1
o Cube_Cube.001
v -4.900000 0.600000 -9.000000
v -4.900000 -0.200000 -9.000000
v -4.900000 -0.200000 9.000000
v -4.900000 0.600000 9.000000
v 4.900000 0.600000 -9.000000
v 4.900000 -0.200000 -9.000000
v 4.900000 -0.200000 9.000000
v -4.690000 -0.200000 8.700000
v 4.690000 -0.200000 8.700000
v -4.690000 -0.200000 -8.700000
v 4.690000 -0.200000 -8.700000
v 4.900000 0.600000 9.000000
v -4.690000 0.600000 8.700000
v 4.690000 0.600000 8.700000
v -4.690000 0.600000 -8.700000
v 4.690000 0.600000 -8.700000
vn -1.000000 0.000000 -0.000000
vn -0.000000 0.000000 -1.000000
vn 1.000000 0.000000 -0.000000
vn -0.000000 0.000000 1.000000
vn -0.000000 -1.000000 0.000000
usemtl Material.002
s off
f 5//2 6//2 7//2
f 5//2 7//2 8//2
f 6//3 5//3 9//3
f 6//3 9//3 10//3
f 16//4 11//4 10//4
f 16//4 10//4 9//4
f 11//5 16//5 8//5
f 11//5 8//5 7//5
f 13//6 15//6 10//6
f 13//6 10//6 11//6
f 14//6 6//6 10//6
f 14//6 10//6 15//6
f 12//6 7//6 6//6
f 12//6 6//6 14//6
f 11//6 7//6 12//6
f 11//6 12//6 13//6
f 9//1 20//1 18//1
f 9//1 18//1 16//1
f 9//1 5//1 19//1
f 9//1 19//1 20//1
f 5//1 8//1 17//1
f 5//1 17//1 19//1
f 17//1 8//1 16//1
f 17//1 16//1 18//1
f 14//4 19//4 17//4
f 14//4 17//4 12//4
f 19//5 14//5 15//5
f 19//5 15//5 20//5
f 20//2 15//2 13//2
f 20//2 13//2 18//2
f 12//3 17//3 18//3
f 12//3 18//3 13//3
