# Blender v2.68 (sub 0) OBJ File: 'table.blend'
# www.blender.org
mtllib table.mtl
o Cube
v 1.000000 0.064092 -1.000000
v 1.000000 0.064092 1.000000
v -1.000000 0.064092 1.000000
v -1.000000 0.064092 -1.000000
v 1.000000 -0.064092 -0.999999
v 0.999999 -0.064092 1.000001
v -1.000000 -0.064092 1.000000
v -1.000000 -0.064092 -1.000000
v 1.000106 0.064928 0.868334
v 1.000106 0.234657 0.868334
v -0.999894 0.234657 0.868334
v -0.999893 0.064928 0.868334
v 1.000107 0.064928 0.996519
v 1.000106 0.234658 0.996519
v -0.999894 0.234657 0.996519
v -0.999894 0.064928 0.996519
v -1.001824 0.064928 -1.001656
v -1.001824 0.234657 -1.001656
v -1.001824 0.234657 0.998344
v -1.001824 0.064928 0.998344
v -0.873639 0.064928 -1.001656
v -0.873639 0.234658 -1.001655
v -0.873639 0.234657 0.998344
v -0.873639 0.064928 0.998344
v 1.000106 0.064928 -1.001640
v 1.000106 0.234657 -1.001640
v -0.999894 0.234657 -1.001640
v -0.999893 0.064928 -1.001640
v 1.000107 0.064928 -0.873455
v 1.000106 0.234658 -0.873455
v -0.999894 0.234657 -0.873455
v -0.999894 0.064928 -0.873455
v 0.869536 0.064928 -1.001656
v 0.869536 0.234657 -1.001656
v 0.869536 0.234657 0.998344
v 0.869536 0.064928 0.998344
v 0.997721 0.064928 -1.001656
v 0.997721 0.234658 -1.001655
v 0.997721 0.234657 0.998344
v 0.997721 0.064928 0.998344
vn 0.000000 -1.000000 0.000000
vn -0.000000 1.000000 0.000000
vn -1.000000 -0.000004 0.000000
vn 0.000000 -0.000005 -1.000000
vn 1.000000 -0.000002 0.000000
vn -0.000000 0.000004 1.000000
vn -1.000000 0.000005 -0.000001
vn 0.000000 0.000001 -1.000000
vn -0.000000 0.000003 1.000000
vn -0.000000 0.000000 1.000000
vn 0.000000 0.000000 -1.000000
vn -1.000000 0.000000 0.000004
vn 0.000000 -1.000000 0.000001
vn 1.000000 0.000003 0.000002
vn -1.000000 -0.000006 -0.000005
vn 1.000000 0.000002 0.000002
vn 1.000000 0.000000 0.000000
vn -1.000000 0.000000 -0.000000
vn 0.000004 0.000000 1.000000
vn 0.000001 -1.000000 -0.000000
vn 0.000002 0.000003 -1.000000
vn -0.000005 -0.000006 1.000000
vn 0.000002 0.000002 -1.000000
usemtl Material
s off
f 1//1 2//1 4//1
f 5//2 8//2 6//2
f 1//3 5//3 2//3
f 2//4 6//4 3//4
f 3//5 7//5 4//5
f 5//6 1//6 8//6
f 2//1 3//1 4//1
f 8//2 7//2 6//2
f 5//7 6//7 2//7
f 6//8 7//8 3//8
f 7//5 8//5 4//5
f 1//9 4//9 8//9
usemtl Material.001
f 9//10 10//10 12//10
f 13//11 16//11 15//11
f 9//12 13//12 10//12
f 10//13 14//13 11//13
f 11//14 15//14 12//14
f 13//2 9//2 16//2
f 10//10 11//10 12//10
f 14//11 13//11 15//11
f 13//15 14//15 10//15
f 14//1 15//1 11//1
f 15//16 16//16 12//16
f 9//2 12//2 16//2
usemtl Material.002
f 17//17 18//17 20//17
f 21//18 24//18 23//18
f 17//19 21//19 18//19
f 18//20 22//20 19//20
f 19//21 23//21 20//21
f 21//2 17//2 24//2
f 18//17 19//17 20//17
f 22//18 21//18 23//18
f 21//22 22//22 18//22
f 22//1 23//1 19//1
f 23//23 24//23 20//23
f 17//2 20//2 24//2
usemtl Material.003
f 25//10 26//10 28//10
f 29//11 32//11 31//11
f 25//12 29//12 26//12
f 26//13 30//13 27//13
f 27//14 31//14 28//14
f 29//2 25//2 32//2
f 26//10 27//10 28//10
f 30//11 29//11 31//11
f 29//15 30//15 26//15
f 30//1 31//1 27//1
f 31//16 32//16 28//16
f 25//2 28//2 32//2
usemtl Material.004
f 33//17 34//17 36//17
f 37//18 40//18 39//18
f 33//19 37//19 34//19
f 34//20 38//20 35//20
f 35//21 39//21 36//21
f 37//2 33//2 40//2
f 34//17 35//17 36//17
f 38//18 37//18 39//18
f 37//22 38//22 34//22
f 38//1 39//1 35//1
f 39//23 40//23 36//23
f 33//2 36//2 40//2
