# Blender v2.63 (sub 0) OBJ File: 'walls.blend'
# www.blender.org
mtllib walls.mtl
o Plane
v 2.676112 -0.354145 4.014168
v -2.676112 -0.354145 4.014168
v 2.676112 -0.354145 -4.014168
v -2.676112 -0.354145 -4.014168
v 0.000000 -0.354145 4.014168
v 0.000000 -0.354145 -4.014168
v -2.676112 -0.354145 0.000000
v 2.676112 -0.354145 0.000000
v 0.000000 -0.354145 0.000000
v -1.338056 -0.354145 4.014168
v -1.338056 -0.354145 -4.014168
v -2.676112 -0.354145 2.007084
v 2.676112 -0.354145 -2.007084
v 1.338056 -0.354145 4.014168
v 1.338056 -0.354145 -4.014168
v -2.676112 -0.354145 -2.007084
v 2.676112 -0.354145 2.007084
v 0.000000 -0.354145 2.007084
v 0.000000 -0.354145 -2.007084
v 1.338056 -0.354145 0.000000
v -1.338056 -0.354145 0.000000
v -1.338056 -0.354145 2.007084
v 1.338056 -0.354145 2.007084
v 1.338056 -0.354145 -2.007084
v -1.338056 -0.354145 -2.007084
vn 0.000000 1.000000 0.000000
usemtl Material.001
s off
f 22//1 12//1 2//1
f 22//1 2//1 10//1
f 23//1 18//1 5//1
f 23//1 5//1 14//1
f 24//1 19//1 9//1
f 24//1 9//1 20//1
f 25//1 16//1 7//1
f 25//1 7//1 21//1
f 18//1 22//1 10//1
f 18//1 10//1 5//1
f 9//1 21//1 22//1
f 9//1 22//1 18//1
f 21//1 7//1 12//1
f 21//1 12//1 22//1
f 14//1 1//1 17//1
f 14//1 17//1 23//1
f 8//1 20//1 23//1
f 8//1 23//1 17//1
f 20//1 9//1 18//1
f 20//1 18//1 23//1
f 13//1 24//1 20//1
f 13//1 20//1 8//1
f 3//1 15//1 24//1
f 3//1 24//1 13//1
f 15//1 6//1 19//1
f 15//1 19//1 24//1
f 19//1 25//1 21//1
f 19//1 21//1 9//1
f 6//1 11//1 25//1
f 6//1 25//1 19//1
f 11//1 4//1 16//1
f 11//1 16//1 25//1
o Cube
v 2.688066 -0.404876 4.032098
v -2.688066 -0.404876 4.032098
v -2.464060 -0.404876 3.808093
v -2.688065 -0.404876 -4.032100
v 2.464060 -0.404876 3.808093
v 2.688066 -0.404876 -4.032098
v -2.464060 -0.404876 -3.808093
v 2.464060 -0.404876 -3.808093
v -2.688066 0.043135 -4.032098
v 2.688067 0.043135 -4.032096
v 2.688064 0.043135 4.032101
v -2.688067 0.043135 4.032097
v -2.464060 0.043135 3.808093
v 2.464060 0.043135 3.808093
v -2.464060 0.043135 -3.808093
v 2.464060 0.043135 -3.808093
v -2.688066 -0.404876 -0.000001
v 2.688066 -0.404876 0.000000
v 2.688065 -0.180871 4.032100
v -0.000001 0.043135 4.032099
v -2.464060 -0.404876 0.000000
v -2.464060 -0.180871 -3.808093
v -2.464060 0.043135 0.000000
v 0.000001 0.043135 -4.032097
v 2.464060 -0.404876 0.000000
v 2.576063 -0.404876 3.920096
v -2.576063 -0.404876 3.920095
v 2.576063 -0.404876 -3.920096
v 2.464060 -0.180871 -3.808093
v 0.000000 0.043135 3.808093
v -2.464060 -0.180871 3.808093
v 2.688066 -0.180871 -4.032097
v -2.576063 0.043135 -3.920096
v 0.000000 -0.404876 3.808093
v 2.688066 0.043135 0.000002
v 2.464060 -0.180871 3.808093
v -2.688066 -0.180871 4.032097
v 0.000000 -0.404876 -4.032099
v 0.000000 -0.404876 -3.808093
v -2.576063 0.043135 3.920095
v -2.688065 -0.180871 -4.032100
v -2.576063 -0.404876 -3.920097
v 2.464060 0.043135 0.000000
v -0.000000 -0.404876 4.032098
v -2.688066 0.043135 -0.000000
v 0.000000 0.043135 -3.808093
v 2.576064 0.043135 -3.920094
v 2.576062 0.043135 3.920097
v 2.576063 -0.404876 0.000000
v 0.000000 -0.404876 -3.920096
v -2.576063 -0.404876 -0.000001
v -0.000000 -0.404876 3.920096
v 2.576063 0.043135 0.000001
v 0.000000 0.043135 -3.920095
v -2.576063 0.043135 -0.000000
v -0.000001 0.043135 3.920096
v 2.688066 -0.180871 0.000001
v -0.000001 -0.180871 4.032098
v -2.688066 -0.180871 -0.000001
v 0.000001 -0.180871 -4.032098
v -2.464060 -0.180871 0.000000
v 0.000000 -0.180871 -3.808093
v 2.464060 -0.180871 0.000000
v 0.000000 -0.180871 3.808093
v -2.688066 -0.404876 -2.016050
v 2.688066 -0.404876 -2.016049
v 2.688065 -0.068868 4.032100
v -1.344034 0.043135 4.032098
v -2.464060 -0.404876 -1.904047
v -2.464060 -0.068868 -3.808093
v -2.464060 0.043135 -1.904047
v 1.344034 0.043135 -4.032097
v 2.464060 -0.404876 -1.904047
v 2.520062 -0.404876 3.864095
v -2.520062 -0.404876 3.864094
v 2.520062 -0.404876 -3.864095
v 2.464060 -0.068868 -3.808093
v 1.232030 0.043135 3.808093
v -2.464060 -0.068868 3.808093
v 2.688067 -0.068868 -4.032097
v -2.520062 0.043135 -3.864095
v 1.232030 -0.404876 3.808093
v 2.688065 0.043135 2.016051
v 2.464060 -0.068868 3.808093
v -2.688066 -0.068868 4.032097
v 1.344033 -0.404876 -4.032098
v 1.232030 -0.404876 -3.808093
v -2.520062 0.043135 3.864094
v -2.688066 -0.068868 -4.032099
v -2.520061 -0.404876 -3.864095
v 2.464060 0.043135 -1.904047
v -1.344033 -0.404876 4.032098
v -2.688066 0.043135 2.016048
v 1.232030 0.043135 -3.808093
v 2.520062 0.043135 -3.864094
v 2.520061 0.043135 3.864095
v -2.688066 -0.404876 2.016048
v 2.688066 -0.404876 2.016049
v 2.688066 -0.292874 4.032099
v 1.344031 0.043135 4.032100
v -2.464060 -0.404876 1.904047
v -2.464060 -0.292874 -3.808093
v -2.464060 0.043135 1.904047
v -1.344032 0.043135 -4.032098
v 2.464060 -0.404876 1.904047
v 2.632065 -0.404876 3.976097
v -2.632065 -0.404876 3.976097
v 2.632065 -0.404876 -3.976097
v 2.464060 -0.292874 -3.808093
v -1.232030 0.043135 3.808093
v -2.464060 -0.292874 3.808093
v 2.688066 -0.292874 -4.032097
v -2.632064 0.043135 -3.976097
v -1.232030 -0.404876 3.808093
v 2.688066 0.043135 -2.016047
v 2.464060 -0.292874 3.808093
v -2.688066 -0.292874 4.032097
v -1.344032 -0.404876 -4.032100
v -1.232030 -0.404876 -3.808093
v -2.632065 0.043135 3.976096
v -2.688065 -0.292874 -4.032100
v -2.632064 -0.404876 -3.976098
v 2.464060 0.043135 1.904047
v 1.344033 -0.404876 4.032098
v -2.688066 0.043135 -2.016049
v -1.232030 0.043135 -3.808093
v 2.632066 0.043135 -3.976096
v 2.632063 0.043135 3.976099
v 2.520062 -0.404876 0.000000
v 2.632065 -0.404876 0.000000
v 2.576063 -0.404876 -1.960048
v 2.576063 -0.404876 1.960048
v 1.288032 -0.404876 -3.920096
v -1.288031 -0.404876 -3.920096
v 0.000000 -0.404876 -3.864095
v 0.000000 -0.404876 -3.976098
v -2.576063 -0.404876 -1.960049
v -2.576063 -0.404876 1.960047
v -2.520062 -0.404876 -0.000000
v -2.632065 -0.404876 -0.000001
v -0.000000 -0.404876 3.864095
v -0.000000 -0.404876 3.976097
v 1.288031 -0.404876 3.920096
v -1.288032 -0.404876 3.920096
v 2.576062 0.043135 1.960049
v 2.576063 0.043135 -1.960047
v 2.632064 0.043135 0.000002
v 2.520062 0.043135 0.000001
v 0.000000 0.043135 -3.864094
v 0.000001 0.043135 -3.976096
v 1.288032 0.043135 -3.920095
v -1.288031 0.043135 -3.920095
v -2.520062 0.043135 -0.000000
v -2.632065 0.043135 -0.000000
v -2.576063 0.043135 -1.960048
v -2.576063 0.043135 1.960047
v 1.288031 0.043135 3.920097
v -1.288032 0.043135 3.920096
v -0.000000 0.043135 3.864095
v -0.000001 0.043135 3.976098
v 2.688066 -0.180871 -2.016048
v 2.688066 -0.180871 2.016050
v 2.688066 -0.068868 0.000002
v 2.688066 -0.292874 0.000001
v -1.344033 -0.180871 4.032098
v 1.344032 -0.180871 4.032099
v -0.000001 -0.292874 4.032098
v -0.000001 -0.068868 4.032098
v -2.688066 -0.180871 -2.016050
v -2.688066 -0.180871 2.016048
v -2.688066 -0.292874 -0.000001
v -2.688066 -0.068868 -0.000001
v 0.000001 -0.068868 -4.032098
v 0.000001 -0.292874 -4.032098
v 1.344033 -0.180871 -4.032097
v -1.344032 -0.180871 -4.032099
v -2.464060 -0.180871 1.904047
v -2.464060 -0.180871 -1.904047
v -2.464060 -0.292874 0.000000
v -2.464060 -0.068868 0.000000
v 1.232030 -0.180871 -3.808093
v -1.232030 -0.180871 -3.808093
v 0.000000 -0.068868 -3.808093
v 0.000000 -0.292874 -3.808093
v 2.464060 -0.180871 1.904047
v 2.464060 -0.180871 -1.904047
v 2.464060 -0.068868 0.000000
v 2.464060 -0.292874 0.000000
v 1.232030 -0.180871 3.808093
v -1.232030 -0.180871 3.808093
v 0.000000 -0.292874 3.808093
v 0.000000 -0.068868 3.808093
v 2.520062 -0.404876 1.932047
v 1.316032 -0.404876 -3.976098
v -2.632064 -0.404876 -1.988050
v -1.260031 -0.404876 3.864095
v 2.520061 0.043135 1.932048
v -1.260031 0.043135 -3.864094
v -2.520062 0.043135 1.932047
v 1.316031 0.043135 3.976098
v 2.688066 -0.292874 -2.016048
v -1.344034 -0.068868 4.032098
v -2.688066 -0.068868 -2.016050
v -1.344032 -0.068868 -4.032098
v -2.464060 -0.068868 1.904047
v 1.232030 -0.292874 -3.808093
v 2.464060 -0.292874 1.904047
v 1.232030 -0.068868 3.808093
v 2.520062 -0.404876 -1.932047
v 2.632065 -0.404876 -1.988048
v 2.632065 -0.404876 1.988049
v 1.260031 -0.404876 -3.864095
v -1.260031 -0.404876 -3.864095
v -1.316032 -0.404876 -3.976098
v -2.520062 -0.404876 -1.932048
v -2.520062 -0.404876 1.932047
v -2.632065 -0.404876 1.988048
v 1.260031 -0.404876 3.864095
v 1.316032 -0.404876 3.976097
v -1.316033 -0.404876 3.976097
v 2.632064 0.043135 1.988050
v 2.632065 0.043135 -1.988047
v 2.520062 0.043135 -1.932047
v 1.260031 0.043135 -3.864094
v 1.316033 0.043135 -3.976096
v -1.316032 0.043135 -3.976097
v -2.520062 0.043135 -1.932047
v -2.632065 0.043135 -1.988049
v -2.632065 0.043135 1.988048
v 1.260031 0.043135 3.864095
v -1.260031 0.043135 3.864094
v -1.316033 0.043135 3.976097
v 2.688066 -0.068868 -2.016047
v 2.688065 -0.068868 2.016051
v 2.688066 -0.292874 2.016050
v -1.344033 -0.292874 4.032098
v 1.344032 -0.292874 4.032098
v 1.344032 -0.068868 4.032100
v -2.688066 -0.292874 -2.016050
v -2.688066 -0.292874 2.016048
v -2.688066 -0.068868 2.016048
v 1.344034 -0.068868 -4.032097
v 1.344033 -0.292874 -4.032098
v -1.344032 -0.292874 -4.032100
v -2.464060 -0.292874 1.904047
v -2.464060 -0.292874 -1.904047
v -2.464060 -0.068868 -1.904047
v 1.232030 -0.068868 -3.808093
v -1.232030 -0.068868 -3.808093
v -1.232030 -0.292874 -3.808093
v 2.464060 -0.068868 1.904047
v 2.464060 -0.068868 -1.904047
v 2.464060 -0.292874 -1.904047
v 1.232030 -0.292874 3.808093
v -1.232030 -0.292874 3.808093
v -1.232030 -0.068868 3.808093
vn 0.000000 -1.000000 0.000000
vn 1.000000 -0.000001 0.000000
vn -0.000001 -0.000000 1.000000
vn -1.000000 -0.000001 -0.000000
vn 0.000000 0.000002 -1.000000
vn 1.000000 0.000000 0.000000
vn 0.000000 0.000000 1.000000
vn -1.000000 0.000000 -0.000000
vn -0.000000 0.000000 -1.000000
vn 1.000000 -0.000003 0.000000
vn 1.000000 0.000002 0.000000
vn 1.000000 0.000001 0.000000
vn -0.000000 -0.000002 1.000000
vn -0.000001 -0.000004 1.000000
vn -1.000000 -0.000003 -0.000000
vn 0.000001 0.000006 -1.000000
vn 0.000000 0.000004 -1.000000
vn -1.000000 -0.000002 -0.000000
vn 1.000000 -0.000002 0.000000
vn 1.000000 0.000004 0.000000
vn -0.000001 0.000002 1.000000
vn -0.000001 -0.000006 1.000000
vn -0.000000 -0.000004 1.000000
vn 0.000001 -0.000000 -1.000000
vn 0.000001 0.000004 -1.000000
vn 0.000001 0.000002 -1.000000
usemtl Material
s off
f 218//2 99//2 30//2
f 218//2 30//2 130//2
f 219//2 111//2 31//2
f 219//2 31//2 133//2
f 220//2 90//2 29//2
f 220//2 29//2 147//2
f 221//2 100//2 28//2
f 221//2 28//2 139//2
f 222//1 148//1 39//1
f 222//1 39//1 121//1
f 223//1 106//1 40//1
f 223//1 40//1 151//1
f 224//1 113//1 38//1
f 224//1 38//1 128//1
f 225//1 125//1 36//1
f 225//1 36//1 153//1
f 226//3 91//3 31//3
f 226//3 31//3 137//3
f 227//4 93//4 37//4
f 227//4 37//4 110//4
f 228//5 150//5 34//5
f 228//5 34//5 114//5
f 229//6 114//6 34//6
f 229//6 34//6 129//6
f 230//7 128//7 38//7
f 230//7 38//7 104//7
f 231//8 112//8 33//8
f 231//8 33//8 134//8
f 232//9 130//9 30//9
f 232//9 30//9 141//9
f 233//10 103//10 39//10
f 233//10 39//10 109//10
f 234//2 154//2 50//2
f 234//2 50//2 98//2
f 235//2 155//2 74//2
f 235//2 74//2 156//2
f 236//2 131//2 51//2
f 236//2 51//2 157//2
f 237//2 158//2 53//2
f 237//2 53//2 101//2
f 238//2 159//2 75//2
f 238//2 75//2 160//2
f 239//2 143//2 63//2
f 239//2 63//2 161//2
f 240//2 162//2 67//2
f 240//2 67//2 115//2
f 241//2 163//2 76//2
f 241//2 76//2 164//2
f 242//2 122//2 42//2
f 242//2 42//2 165//2
f 243//2 166//2 59//2
f 243//2 59//2 107//2
f 244//2 167//2 77//2
f 244//2 77//2 168//2
f 245//2 132//2 52//2
f 245//2 52//2 169//2
f 246//1 170//1 73//1
f 246//1 73//1 153//1
f 247//1 171//1 78//1
f 247//1 78//1 172//1
f 248//1 116//1 68//1
f 248//1 68//1 173//1
f 249//1 174//1 71//1
f 249//1 71//1 119//1
f 250//1 175//1 79//1
f 250//1 79//1 176//1
f 251//1 138//1 58//1
f 251//1 58//1 177//1
f 252//1 178//1 48//1
f 252//1 48//1 96//1
f 253//1 179//1 80//1
f 253//1 80//1 180//1
f 254//1 145//1 65//1
f 254//1 65//1 181//1
f 255//1 182//1 73//1
f 255//1 73//1 121//1
f 256//1 183//1 81//1
f 256//1 81//1 184//1
f 257//1 93//1 45//1
f 257//1 45//1 185//1
f 258//11 186//11 57//11
f 258//11 57//11 105//11
f 259//12 187//12 82//12
f 259//12 82//12 188//12
f 260//13 123//13 43//13
f 260//13 43//13 189//13
f 261//4 190//4 62//4
f 261//4 62//4 142//4
f 262//14 191//14 83//14
f 262//14 83//14 192//14
f 263//15 125//15 45//15
f 263//15 45//15 193//15
f 264//5 194//5 66//5
f 264//5 66//5 146//5
f 265//9 195//9 84//9
f 265//9 84//9 196//9
f 266//16 118//16 70//16
f 266//16 70//16 197//16
f 267//17 198//17 49//17
f 267//17 49//17 97//17
f 268//18 199//18 85//18
f 268//18 85//18 200//18
f 269//18 146//18 66//18
f 269//18 66//18 201//18
f 270//7 202//7 56//7
f 270//7 56//7 136//7
f 271//7 203//7 86//7
f 271//7 86//7 204//7
f 272//7 96//7 48//7
f 272//7 48//7 205//7
f 273//8 206//8 54//8
f 273//8 54//8 102//8
f 274//8 207//8 87//8
f 274//8 87//8 208//8
f 275//8 144//8 64//8
f 275//8 64//8 209//8
f 276//9 210//9 61//9
f 276//9 61//9 109//9
f 277//9 211//9 88//9
f 277//9 88//9 212//9
f 278//9 98//9 50//9
f 278//9 50//9 213//9
f 279//10 214//10 61//10
f 279//10 61//10 141//10
f 280//10 215//10 89//10
f 280//10 89//10 216//10
f 281//10 135//10 55//10
f 281//10 55//10 217//10
f 154//2 218//2 130//2
f 154//2 130//2 50//2
f 74//2 157//2 218//2
f 74//2 218//2 154//2
f 157//2 51//2 99//2
f 157//2 99//2 218//2
f 158//2 219//2 133//2
f 158//2 133//2 53//2
f 75//2 161//2 219//2
f 75//2 219//2 158//2
f 161//2 63//2 111//2
f 161//2 111//2 219//2
f 162//2 220//2 147//2
f 162//2 147//2 67//2
f 76//2 165//2 220//2
f 76//2 220//2 162//2
f 165//2 42//2 90//2
f 165//2 90//2 220//2
f 166//2 221//2 139//2
f 166//2 139//2 59//2
f 77//2 169//2 221//2
f 77//2 221//2 166//2
f 169//2 52//2 100//2
f 169//2 100//2 221//2
f 170//1 222//1 121//1
f 170//1 121//1 73//1
f 78//1 173//1 222//1
f 78//1 222//1 170//1
f 173//1 68//1 148//1
f 173//1 148//1 222//1
f 174//1 223//1 151//1
f 174//1 151//1 71//1
f 79//1 177//1 223//1
f 79//1 223//1 174//1
f 177//1 58//1 106//1
f 177//1 106//1 223//1
f 178//1 224//1 128//1
f 178//1 128//1 48//1
f 80//1 181//1 224//1
f 80//1 224//1 178//1
f 181//1 65//1 113//1
f 181//1 113//1 224//1
f 182//1 225//1 153//1
f 182//1 153//1 73//1
f 81//1 185//1 225//1
f 81//1 225//1 182//1
f 185//1 45//1 125//1
f 185//1 125//1 225//1
f 186//11 226//11 137//11
f 186//11 137//11 57//11
f 82//3 189//3 226//3
f 82//3 226//3 186//3
f 189//7 43//7 91//7
f 189//7 91//7 226//7
f 190//4 227//4 110//4
f 190//4 110//4 62//4
f 83//8 193//8 227//8
f 83//8 227//8 190//8
f 193//14 45//14 93//14
f 193//14 93//14 227//14
f 194//5 228//5 114//5
f 194//5 114//5 66//5
f 84//9 197//9 228//9
f 84//9 228//9 194//9
f 197//19 70//19 150//19
f 197//19 150//19 228//19
f 198//18 229//18 129//18
f 198//18 129//18 49//18
f 85//6 201//6 229//6
f 85//6 229//6 198//6
f 201//17 66//17 114//17
f 201//17 114//17 229//17
f 202//7 230//7 104//7
f 202//7 104//7 56//7
f 86//7 205//7 230//7
f 86//7 230//7 202//7
f 205//7 48//7 128//7
f 205//7 128//7 230//7
f 206//8 231//8 134//8
f 206//8 134//8 54//8
f 87//8 209//8 231//8
f 87//8 231//8 206//8
f 209//8 64//8 112//8
f 209//8 112//8 231//8
f 210//9 232//9 141//9
f 210//9 141//9 61//9
f 88//9 213//9 232//9
f 88//9 232//9 210//9
f 213//9 50//9 130//9
f 213//9 130//9 232//9
f 214//10 233//10 109//10
f 214//10 109//10 61//10
f 89//10 217//10 233//10
f 89//10 233//10 214//10
f 217//10 55//10 103//10
f 217//10 103//10 233//10
f 101//2 234//2 98//2
f 101//2 98//2 33//2
f 53//2 156//2 234//2
f 53//2 234//2 101//2
f 156//2 74//2 154//2
f 156//2 154//2 234//2
f 133//2 235//2 156//2
f 133//2 156//2 53//2
f 31//2 91//2 235//2
f 31//2 235//2 133//2
f 91//2 43//2 155//2
f 91//2 155//2 235//2
f 155//2 236//2 157//2
f 155//2 157//2 74//2
f 43//2 123//2 236//2
f 43//2 236//2 155//2
f 123//2 26//2 131//2
f 123//2 131//2 236//2
f 112//2 237//2 101//2
f 112//2 101//2 33//2
f 64//2 160//2 237//2
f 64//2 237//2 112//2
f 160//2 75//2 158//2
f 160//2 158//2 237//2
f 144//2 238//2 160//2
f 144//2 160//2 64//2
f 32//2 115//2 238//2
f 32//2 238//2 144//2
f 115//2 67//2 159//2
f 115//2 159//2 238//2
f 159//2 239//2 161//2
f 159//2 161//2 75//2
f 67//2 147//2 239//2
f 67//2 239//2 159//2
f 147//2 29//2 143//2
f 147//2 143//2 239//2
f 94//2 240//2 115//2
f 94//2 115//2 32//2
f 46//2 164//2 240//2
f 46//2 240//2 94//2
f 164//2 76//2 162//2
f 164//2 162//2 240//2
f 126//2 241//2 164//2
f 126//2 164//2 46//2
f 28//2 100//2 241//2
f 28//2 241//2 126//2
f 100//2 52//2 163//2
f 100//2 163//2 241//2
f 163//2 242//2 165//2
f 163//2 165//2 76//2
f 52//2 132//2 242//2
f 52//2 242//2 163//2
f 132//2 27//2 122//2
f 132//2 122//2 242//2
f 99//2 243//2 107//2
f 99//2 107//2 30//2
f 51//2 168//2 243//2
f 51//2 243//2 99//2
f 168//2 77//2 166//2
f 168//2 166//2 243//2
f 131//2 244//2 168//2
f 131//2 168//2 51//2
f 26//2 149//2 244//2
f 26//2 244//2 131//2
f 149//2 69//2 167//2
f 149//2 167//2 244//2
f 167//2 245//2 169//2
f 167//2 169//2 77//2
f 69//2 117//2 245//2
f 69//2 245//2 167//2
f 117//2 27//2 132//2
f 117//2 132//2 245//2
f 108//1 246//1 153//1
f 108//1 153//1 36//1
f 60//1 172//1 246//1
f 60//1 246//1 108//1
f 172//1 78//1 170//1
f 172//1 170//1 246//1
f 140//1 247//1 172//1
f 140//1 172//1 60//1
f 35//1 152//1 247//1
f 35//1 247//1 140//1
f 152//1 72//1 171//1
f 152//1 171//1 247//1
f 171//1 248//1 173//1
f 171//1 173//1 78//1
f 72//1 120//1 248//1
f 72//1 248//1 171//1
f 120//1 41//1 116//1
f 120//1 116//1 248//1
f 120//1 249//1 119//1
f 120//1 119//1 41//1
f 72//1 176//1 249//1
f 72//1 249//1 120//1
f 176//1 79//1 174//1
f 176//1 174//1 249//1
f 152//1 250//1 176//1
f 152//1 176//1 72//1
f 35//1 97//1 250//1
f 35//1 250//1 152//1
f 97//1 49//1 175//1
f 97//1 175//1 250//1
f 175//1 251//1 177//1
f 175//1 177//1 79//1
f 49//1 129//1 251//1
f 49//1 251//1 175//1
f 129//1 34//1 138//1
f 129//1 138//1 251//1
f 106//1 252//1 96//1
f 106//1 96//1 40//1
f 58//1 180//1 252//1
f 58//1 252//1 106//1
f 180//1 80//1 178//1
f 180//1 178//1 252//1
f 138//1 253//1 180//1
f 138//1 180//1 58//1
f 34//1 150//1 253//1
f 34//1 253//1 138//1
f 150//1 70//1 179//1
f 150//1 179//1 253//1
f 179//1 254//1 181//1
f 179//1 181//1 80//1
f 70//1 118//1 254//1
f 70//1 254//1 179//1
f 118//1 37//1 145//1
f 118//1 145//1 254//1
f 103//1 255//1 121//1
f 103//1 121//1 39//1
f 55//1 184//1 255//1
f 55//1 255//1 103//1
f 184//1 81//1 182//1
f 184//1 182//1 255//1
f 135//1 256//1 184//1
f 135//1 184//1 55//1
f 38//1 113//1 256//1
f 38//1 256//1 135//1
f 113//1 65//1 183//1
f 113//1 183//1 256//1
f 183//1 257//1 185//1
f 183//1 185//1 81//1
f 65//1 145//1 257//1
f 65//1 257//1 183//1
f 145//1 37//1 93//1
f 145//1 93//1 257//1
f 140//3 258//3 105//3
f 140//3 105//3 35//3
f 60//13 188//13 258//13
f 60//13 258//13 140//13
f 188//20 82//20 186//20
f 188//20 186//20 258//20
f 108//12 259//12 188//12
f 108//12 188//12 60//12
f 36//12 92//12 259//12
f 36//12 259//12 108//12
f 92//21 44//21 187//21
f 92//21 187//21 259//21
f 187//7 260//7 189//7
f 187//7 189//7 82//7
f 44//12 124//12 260//12
f 44//12 260//12 187//12
f 124//12 26//12 123//12
f 124//12 123//12 260//12
f 117//22 261//22 142//22
f 117//22 142//22 27//22
f 69//8 192//8 261//8
f 69//8 261//8 117//8
f 192//8 83//8 190//8
f 192//8 190//8 261//8
f 149//8 262//8 192//8
f 149//8 192//8 69//8
f 26//14 124//14 262//14
f 26//14 262//14 149//14
f 124//23 44//23 191//23
f 124//23 191//23 262//23
f 191//15 263//15 193//15
f 191//15 193//15 83//15
f 44//23 92//23 263//23
f 44//23 263//23 191//23
f 92//24 36//24 125//24
f 92//24 125//24 263//24
f 90//9 264//9 146//9
f 90//9 146//9 29//9
f 42//9 196//9 264//9
f 42//9 264//9 90//9
f 196//9 84//9 194//9
f 196//9 194//9 264//9
f 122//9 265//9 196//9
f 122//9 196//9 42//9
f 27//9 142//9 265//9
f 27//9 265//9 122//9
f 142//9 62//9 195//9
f 142//9 195//9 265//9
f 195//9 266//9 197//9
f 195//9 197//9 84//9
f 62//9 110//9 266//9
f 62//9 266//9 195//9
f 110//16 37//16 118//16
f 110//16 118//16 266//16
f 105//18 267//18 97//18
f 105//18 97//18 35//18
f 57//10 200//10 267//10
f 57//10 267//10 105//10
f 200//25 85//25 198//25
f 200//25 198//25 267//25
f 137//17 268//17 200//17
f 137//17 200//17 57//17
f 31//18 111//18 268//18
f 31//18 268//18 137//18
f 111//6 63//6 199//6
f 111//6 199//6 268//6
f 199//26 269//26 201//26
f 199//26 201//26 85//26
f 63//27 143//27 269//27
f 63//27 269//27 199//27
f 143//6 29//6 146//6
f 143//6 146//6 269//6
f 126//7 270//7 136//7
f 126//7 136//7 28//7
f 46//7 204//7 270//7
f 46//7 270//7 126//7
f 204//7 86//7 202//7
f 204//7 202//7 270//7
f 94//7 271//7 204//7
f 94//7 204//7 46//7
f 32//7 127//7 271//7
f 32//7 271//7 94//7
f 127//7 47//7 203//7
f 127//7 203//7 271//7
f 203//7 272//7 205//7
f 203//7 205//7 86//7
f 47//7 95//7 272//7
f 47//7 272//7 203//7
f 95//7 40//7 96//7
f 95//7 96//7 272//7
f 119//8 273//8 102//8
f 119//8 102//8 41//8
f 71//8 208//8 273//8
f 71//8 273//8 119//8
f 208//8 87//8 206//8
f 208//8 206//8 273//8
f 151//8 274//8 208//8
f 151//8 208//8 71//8
f 40//8 95//8 274//8
f 40//8 274//8 151//8
f 95//8 47//8 207//8
f 95//8 207//8 274//8
f 207//8 275//8 209//8
f 207//8 209//8 87//8
f 47//8 127//8 275//8
f 47//8 275//8 207//8
f 127//8 32//8 144//8
f 127//8 144//8 275//8
f 148//9 276//9 109//9
f 148//9 109//9 39//9
f 68//9 212//9 276//9
f 68//9 276//9 148//9
f 212//9 88//9 210//9
f 212//9 210//9 276//9
f 116//9 277//9 212//9
f 116//9 212//9 68//9
f 41//9 102//9 277//9
f 41//9 277//9 116//9
f 102//9 54//9 211//9
f 102//9 211//9 277//9
f 211//9 278//9 213//9
f 211//9 213//9 88//9
f 54//9 134//9 278//9
f 54//9 278//9 211//9
f 134//9 33//9 98//9
f 134//9 98//9 278//9
f 107//10 279//10 141//10
f 107//10 141//10 30//10
f 59//10 216//10 279//10
f 59//10 279//10 107//10
f 216//10 89//10 214//10
f 216//10 214//10 279//10
f 139//10 280//10 216//10
f 139//10 216//10 59//10
f 28//10 136//10 280//10
f 28//10 280//10 139//10
f 136//10 56//10 215//10
f 136//10 215//10 280//10
f 215//10 281//10 217//10
f 215//10 217//10 89//10
f 56//10 104//10 281//10
f 56//10 281//10 215//10
f 104//10 38//10 135//10
f 104//10 135//10 281//10
